<svg width="380" height="380" viewBox="0 0 380 380" fill="none" xmlns="http://www.w3.org/2000/svg">
<path fill-rule="evenodd" clip-rule="evenodd" d="M190 337C271.186 337 337 271.186 337 190C337 108.814 271.186 43 190 43C108.814 43 43 108.814 43 190C43 271.186 108.814 337 190 337ZM190 318.957C118.779 318.957 61.043 261.221 61.043 190C61.043 118.779 118.779 61.043 190 61.043C261.221 61.043 318.957 118.779 318.957 190C318.957 261.221 261.221 318.957 190 318.957ZM234.555 249.656L223.055 267.156L204.555 259.656C204.555 259.656 183.062 247.696 171.055 237.656C159.825 228.266 154.225 222.066 145.055 210.656C143.341 208.525 141.727 206.604 140.201 204.79C134.354 197.837 129.814 192.439 126.055 182.656C123.388 175.716 122.415 171.542 121.555 164.156C120.742 157.174 120.598 153.12 121.555 146.156C122.464 139.539 126.055 129.656 126.055 129.656C126.055 129.656 120.727 130.017 117.555 131.156C112.042 133.136 105.555 140.156 105.555 140.156C105.555 140.156 99.78 145.347 97.555 149.656C96.59 151.525 96.138 152.636 95.555 154.656C93.931 160.285 95.555 169.656 95.555 169.656L84.055 185.656C84.055 185.656 81.673 179.066 81.055 174.656C80.961 173.985 80.869 173.354 80.781 172.751C80.238 169.008 79.852 166.356 80.055 162.156C80.262 157.848 80.917 155.317 82.055 151.156C83.322 146.524 84.215 143.35 86.555 139.156C88.24 136.135 89.765 134.454 91.642 132.386C92.381 131.572 93.175 130.697 94.055 129.656C97.816 125.208 100.482 123.019 105.555 120.156C110.439 117.4 113.776 116.622 118.967 115.411C119.321 115.328 119.683 115.244 120.055 115.156C125.98 113.766 129.676 113.563 135.327 113.252H135.329C135.884 113.222 136.458 113.19 137.055 113.156C143.293 112.803 153.055 113.156 153.055 113.156L147.055 121.656C147.055 121.656 141.837 128.532 140.055 133.656C138.872 137.056 138.663 139.529 138.41 142.518C138.315 143.634 138.214 144.822 138.055 146.156C137.554 150.344 137.713 152.963 137.941 156.733C137.978 157.341 138.017 157.978 138.055 158.656C138.366 164.224 139.372 167.377 141.041 172.613L141.055 172.656C143.019 178.818 148.055 187.156 148.055 187.156L157.055 199.156L171.055 213.656L183.555 225.656L196.555 235.656L208.055 243.156L219.055 249.656H234.555ZM156.5 115L145 132.5C145 132.5 154.705 130.751 160.5 132.5C165.277 133.942 171.5 138 171.5 138L183 146.5L196 156.5L208.5 168.5L222.5 183L231.5 195C231.5 195 236.536 203.338 238.5 209.5L238.514 209.543C240.183 214.779 241.188 217.933 241.5 223.5C241.521 223.878 241.543 224.244 241.564 224.598L241.581 224.89L241.605 225.281L241.61 225.372L241.612 225.404L241.613 225.415V225.42V225.423C241.842 229.193 242.001 231.812 241.5 236C241.34 237.335 241.24 238.522 241.145 239.638C240.892 242.627 240.682 245.1 239.5 248.5C237.718 253.624 232.5 260.5 232.5 260.5L226.5 269C226.5 269 236.262 269.353 242.5 269L243 268.972L243.325 268.954C243.632 268.937 243.932 268.92 244.227 268.904C249.879 268.594 253.575 268.391 259.5 267L260 266.883L260.588 266.746C265.779 265.535 269.116 264.756 274 262C279.073 259.137 281.739 256.948 285.5 252.5C286.38 251.459 287.173 250.585 287.913 249.77L287.914 249.769C289.79 247.701 291.315 246.021 293 243C295.34 238.806 296.233 235.633 297.5 231C298.638 226.839 299.292 224.308 299.5 220C299.702 215.801 299.317 213.149 298.773 209.405C298.686 208.802 298.594 208.171 298.5 207.5C297.882 203.09 295.5 196.5 295.5 196.5L284 212.5C284 212.5 285.624 221.872 284 227.5C283.417 229.521 282.965 230.631 282 232.5C279.775 236.81 274 242 274 242C274 242 267.513 249.02 262 251C258.828 252.139 253.5 252.5 253.5 252.5C253.5 252.5 257.091 242.617 258 236C258.957 229.036 258.813 224.982 258 218C257.14 210.615 256.167 206.441 253.5 199.5C249.741 189.718 245.201 184.319 239.354 177.366C237.828 175.552 236.213 173.632 234.5 171.5C225.33 160.09 219.73 153.89 208.5 144.5C196.493 134.46 175 122.5 175 122.5L156.5 115ZM145 170L154 184.5C154 184.5 162.28 174.518 168 168.5C173.803 162.394 183.5 153.5 183.5 153.5L170.5 144L145 170ZM225.5 196L234.5 210.5L209 236.5L196 227C196 227 205.697 218.106 211.5 212C217.22 205.982 225.5 196 225.5 196ZM104 117.551C104 117.551 110.427 113.292 115 111.551C118.585 110.187 120.684 109.443 124.5 109.051C127.025 108.792 131 109.051 131 109.051C131 109.051 136.132 104.725 140 102.05C140.268 101.865 140.527 101.685 140.778 101.51L140.784 101.506L140.785 101.505C143.294 99.76 145.062 98.531 148 97.551C151.025 96.543 152.923 96.546 155.87 96.551C156.075 96.551 156.285 96.551 156.5 96.551C159.124 96.551 160.815 96.867 163.111 97.296H163.112C163.549 97.377 164.008 97.463 164.5 97.551C168.715 98.309 170.73 99.02 174.5 101.051C178.182 103.035 180.471 104.699 183.292 106.749C184.271 107.46 185.313 108.218 186.5 109.051C187.059 109.444 187.588 109.814 188.095 110.169V110.17C191.733 112.717 194.205 114.449 198 117.551C201.64 120.528 203.582 122.322 207 125.551C210.212 128.585 215 133.551 215 133.551L232 131.551C232 131.551 227.419 122.318 223 117.551C219.413 113.682 217.186 111.761 212.5 108.051L200.5 98.551C196.002 94.99 192.401 92.74 187.165 89.467L186.5 89.051C181.9 86.175 179.623 84.836 174.5 83.051C169.649 81.362 166.636 81.08 161.5 81.051C160.662 81.047 159.881 81.035 159.14 81.024C155.17 80.965 152.347 80.923 148 82.051C143.995 83.09 141.809 83.934 138 85.551L137.644 85.702C133.198 87.589 130.54 88.717 126.5 91.551C124.109 93.229 122.645 94.63 120.916 96.285C120.188 96.983 119.411 97.725 118.5 98.551C118.235 98.792 117.974 99.028 117.718 99.259C114.126 102.511 111.421 104.958 108.5 109.051C106.318 112.109 104 117.551 104 117.551ZM154.5 249.5C151.348 250.541 147 250.5 147 250.5C147 250.5 149.832 256.645 152.5 260C153.919 261.784 155.101 262.86 156.474 264.11C157.096 264.676 157.759 265.279 158.5 266C159.139 266.622 159.718 267.19 160.262 267.724V267.725C162.332 269.758 163.912 271.31 166.5 273.5C169.69 276.2 175 280 175 280C175 280 169.887 281.793 166.5 282.5C163.797 283.064 162.255 283.305 159.5 283.5C159.039 283.533 158.61 283.567 158.203 283.6C156.207 283.762 154.739 283.881 152.5 283.5C148.971 282.9 147.111 281.815 144.026 280.015L144 280C140.523 277.972 136 273.5 136 273.5C136 273.5 130.807 273.787 127.5 273.5C124.142 273.208 122.248 272.901 119 272C114.281 270.691 107.5 267 107.5 267C107.5 267 112.506 274.146 116.5 278C120.715 282.068 123.55 283.868 128.5 287L128.979 287.303C134.961 291.09 138.585 293.384 145.5 295.5C151.548 297.35 155.178 298.166 161.5 298C167.472 297.843 170.946 297.201 176.5 295C180.891 293.26 187 289 187 289L202 278C202 278 190.453 271.722 183.5 267C182.632 266.41 181.83 265.875 181.072 265.369C177.798 263.184 175.354 261.553 172 258.5C167.395 254.309 161.5 246.5 161.5 246.5C161.5 246.5 157.174 248.617 154.5 249.5ZM205.5 281L193 291.5C193 291.5 199.4 295.619 204 297C208.338 298.303 210.971 298.446 215.5 298.5C216.85 298.516 218.005 298.588 219.092 298.656C221.322 298.796 223.263 298.917 226 298.5C230.077 297.879 232.643 296.883 236.226 295.493C236.636 295.334 237.059 295.169 237.5 295C241.358 293.516 243.552 291.972 246.528 289.877L246.529 289.876C247.145 289.443 247.795 288.985 248.5 288.5C251.704 286.295 253.61 284.691 256.207 282.505C256.766 282.034 257.357 281.536 258 281C261.188 278.341 262.966 276.833 266 274C269.23 270.985 274 266 274 266C274 266 269.275 269.042 266 270.5C263.348 271.68 261.818 272.304 259 273C256.507 273.615 255.068 273.948 252.5 274C249.546 274.059 245 273 245 273C245 273 240.722 277.08 237.5 279C234.57 280.745 232.793 281.615 229.5 282.5C226.459 283.317 221.5 283.5 221.5 283.5H213.5L205.5 281ZM90.5 205C87.564 201.086 84.5 194 84.5 194C84.5 194 82.752 198.506 82 201.5C81.039 205.33 80.819 207.564 80.5 211.5C80.122 216.171 79.998 218.841 80.5 223.5C81.059 228.68 81.412 231.727 83.5 236.5C85.476 241.015 90.5 247 90.5 247C90.5 247 95.557 253.249 99.5 256.5C102.759 259.187 104.673 260.712 108.5 262.5C111.848 264.064 114.069 264.543 117.421 265.266L118.004 265.392C118.166 265.427 118.332 265.463 118.5 265.5C122.925 266.466 130 267 130 267L120.5 249.5C120.5 249.5 115.379 248.558 112.5 247C110.059 245.679 108.75 244.327 107.1 242.622L107.099 242.62H107.098C106.609 242.114 106.089 241.577 105.5 241C102.535 238.095 101.311 236.736 99.5 233C97.847 229.588 97.148 227.336 96.5 223.5C95.932 220.132 96.192 216.45 96.375 213.862C96.443 212.899 96.5 212.087 96.5 211.5C96.5 211.5 92.574 207.763 90.5 205ZM109 163.5C113.108 160.054 117.5 158 117.5 158C117.5 158 117.281 163.061 117.75 166.25C118.236 169.554 120 174.5 120 174.5C120 174.5 115.62 178.035 111.5 182.5C110.011 184.113 108.983 185.3 107.834 186.627L107.833 186.628C107.21 187.347 106.552 188.108 105.765 189C107.028 191.538 107.403 192.157 109 194.5C110.635 196.898 112.002 198.894 114 201C115.651 202.74 115.874 202.912 116.663 203.521C117.054 203.823 117.585 204.233 118.5 204.996C120.539 206.698 122.5 207.5 122.5 207.5V207.974C122.659 207.154 122.833 206.342 123.023 205.544C123.986 201.505 126.5 195.496 126.5 195.496L139.523 211.544C139.523 211.544 137.363 217.916 137.023 222.044C136.56 227.688 136.823 231.011 138.023 236.544C138.736 239.828 139.77 241.908 141.015 244.409V244.41C141.489 245.363 141.994 246.378 142.523 247.544C145.627 254.385 151.523 264.544 151.523 264.544C151.523 264.544 148.414 267.168 146.023 268.044C142.173 269.456 135.523 268.044 135.523 268.044C135.523 268.044 131.466 261.1 129.5 257.496C128.909 256.413 128.398 255.496 127.945 254.684C126.1 251.376 125.241 249.835 124.023 246.044C122.864 242.435 122.449 240.312 122.023 236.544C121.568 232.513 121.255 229.101 121.076 226.023L113 220.5C113 220.5 108.389 217.389 105.765 215C103.243 212.704 101.896 211.051 99.96 208.675C99.657 208.303 99.339 207.913 99 207.5C97.587 205.779 95.5 203 95.5 203L87 190C87 190 90.307 185.395 92.5 182.5C92.908 181.961 93.289 181.456 93.652 180.974C95.831 178.087 97.354 176.068 100 173C100.592 172.313 101.134 171.675 101.647 171.071C104.025 168.268 105.779 166.202 109 163.5ZM263.023 221.672C263.023 221.672 267.416 219.618 271.523 216.172C274.744 213.47 276.498 211.404 278.877 208.601C279.39 207.997 279.932 207.358 280.523 206.672C283.169 203.604 284.693 201.584 286.871 198.697C287.043 198.47 287.218 198.237 287.399 197.998C287.6 197.731 287.808 197.456 288.023 197.172C290.216 194.277 293.523 189.672 293.523 189.672L285.023 176.672C285.023 176.672 282.936 173.893 281.523 172.172C281.185 171.759 280.867 171.369 280.564 170.997C278.628 168.621 277.28 166.968 274.759 164.672C272.134 162.283 267.523 159.172 267.523 159.172L259.447 153.649C259.268 150.57 258.956 147.158 258.5 143.127C258.074 139.36 257.66 137.237 256.5 133.627C255.282 129.837 254.423 128.296 252.578 124.987C252.126 124.176 251.614 123.259 251.023 122.176C249.058 118.572 245 111.627 245 111.627C245 111.627 238.35 110.216 234.5 111.627C232.11 112.504 229 115.127 229 115.127C229 115.127 234.896 125.287 238 132.127C238.529 133.293 239.033 134.306 239.507 135.259L239.508 135.262C240.752 137.764 241.788 139.843 242.5 143.127C243.701 148.661 243.964 151.984 243.5 157.627C243.161 161.756 241 168.127 241 168.127L254.023 184.176C254.023 184.176 256.537 178.167 257.5 174.127C257.69 173.33 257.864 172.517 258.024 171.698V172.172C258.024 172.172 259.984 172.974 262.024 174.675C262.937 175.437 263.468 175.847 263.859 176.149L263.861 176.151C264.649 176.76 264.873 176.932 266.523 178.672C268.521 180.778 269.889 182.773 271.523 185.172C273.12 187.515 273.495 188.134 274.759 190.672C273.972 191.564 273.313 192.325 272.69 193.044C271.54 194.372 270.512 195.559 269.023 197.172C264.903 201.637 260.523 205.172 260.523 205.172C260.523 205.172 262.287 210.118 262.773 213.422C263.243 216.611 263.023 221.672 263.023 221.672ZM193 87.715L208.5 98.715C208.5 98.715 214.552 97.291 218.5 97.215C223.028 97.128 225.644 97.474 230 98.715C233.034 99.58 234.723 100.219 237.5 101.715C240.218 103.18 241.61 104.261 244 106.215C244.283 106.446 244.555 106.668 244.819 106.882C247.345 108.934 249.043 110.313 251 113.215C251.484 113.933 251.959 114.574 252.42 115.196C253.355 116.457 254.231 117.638 255 119.215C255.458 120.154 255.877 120.98 256.272 121.758C257.264 123.713 258.101 125.363 259 127.715C259.751 129.68 260 132.715 260 132.715C260 132.715 265.477 133.912 268.5 135.715C271.704 137.626 273.021 138.998 275.578 141.715C278.336 144.646 279.949 146.752 282 150.215C282.262 150.658 282.511 151.071 282.749 151.465C283.802 153.212 284.641 154.602 285.5 156.715C286.053 158.074 286.187 158.866 286.405 160.155C286.434 160.332 286.466 160.518 286.5 160.715C286.971 163.436 285.5 167.715 285.5 167.715L297 184.215C297 184.215 299.213 179.146 300 175.715C300.834 172.079 300.907 169.945 301 166.215C301.006 165.983 301.012 165.755 301.017 165.531C301.133 161.043 301.206 158.221 300 153.715C298.713 148.906 298.004 146.518 295.5 142.215C293.239 138.33 291.377 136.023 288 132.715C284.513 129.299 281.977 127.047 278 124.215C275.974 122.773 273.525 121.239 271.159 119.833L279 124.215C279 124.215 276.506 117.214 274 113.215C271.278 108.872 269.177 106.785 265.5 103.215C261.874 99.695 259.313 97.914 255.525 95.279C255.039 94.94 254.532 94.587 254 94.215C253.128 93.605 252.333 93.035 251.582 92.498C248.438 90.244 246.068 88.547 242 86.715C236.986 84.458 233.892 83.794 228.5 82.715C228.121 82.639 227.752 82.565 227.39 82.492C221.702 81.348 218.054 80.614 212 81.215C204.196 81.991 193 87.715 193 87.715Z" fill="url(#paint0_linear_1_11)"/>
<defs>
<linearGradient id="paint0_linear_1_11" x1="190" y1="43" x2="190" y2="337" gradientUnits="userSpaceOnUse">
<stop stop-color="#5A6D81"/>
<stop offset="1" stop-color="#2E3C47"/>
</linearGradient>
</defs>
</svg>
