<svg width="1024" height="1024" viewBox="0 0 1024 1024" fill="none" xmlns="http://www.w3.org/2000/svg">
<path fill-rule="evenodd" clip-rule="evenodd" d="M512 487C593.186 487 659 421.186 659 340C659 258.814 593.186 193 512 193C430.814 193 365 258.814 365 340C365 421.186 430.814 487 512 487ZM512 468.957C440.779 468.957 383.043 411.221 383.043 340C383.043 268.779 440.779 211.043 512 211.043C583.221 211.043 640.957 268.779 640.957 340C640.957 411.221 583.221 468.957 512 468.957ZM556.555 399.656L545.055 417.156L526.555 409.656C526.555 409.656 505.062 397.696 493.055 387.656C481.825 378.266 476.225 372.066 467.055 360.656C465.341 358.525 463.727 356.604 462.201 354.79C456.354 347.837 451.814 342.439 448.055 332.656C445.388 325.716 444.415 321.542 443.555 314.156C442.742 307.174 442.598 303.12 443.555 296.156C444.464 289.539 448.055 279.656 448.055 279.656C448.055 279.656 442.727 280.017 439.555 281.156C434.042 283.136 427.555 290.156 427.555 290.156C427.555 290.156 421.78 295.347 419.555 299.656C418.59 301.525 418.138 302.636 417.555 304.656C415.931 310.285 417.555 319.656 417.555 319.656L406.055 335.656C406.055 335.656 403.673 329.066 403.055 324.656C402.961 323.985 402.869 323.354 402.781 322.751C402.238 319.008 401.852 316.356 402.055 312.156C402.262 307.848 402.917 305.317 404.055 301.156C405.322 296.524 406.215 293.35 408.555 289.156C410.24 286.135 411.765 284.454 413.642 282.386C414.381 281.572 415.175 280.697 416.055 279.656C419.816 275.208 422.482 273.019 427.555 270.156C432.439 267.4 435.776 266.622 440.967 265.411C441.321 265.328 441.683 265.244 442.055 265.156C447.98 263.766 451.676 263.563 457.327 263.252L457.329 263.252C457.884 263.222 458.458 263.19 459.055 263.156C465.293 262.803 475.055 263.156 475.055 263.156L469.055 271.656C469.055 271.656 463.837 278.532 462.055 283.656C460.872 287.056 460.663 289.529 460.41 292.518V292.518L460.41 292.518C460.315 293.634 460.214 294.822 460.055 296.156C459.554 300.344 459.713 302.963 459.941 306.733C459.978 307.341 460.017 307.978 460.055 308.656C460.366 314.224 461.372 317.377 463.041 322.613L463.055 322.656C465.019 328.818 470.055 337.156 470.055 337.156L479.055 349.156L493.055 363.656L505.555 375.656L518.555 385.656L530.055 393.156L541.055 399.656H556.555ZM478.5 265L467 282.5C467 282.5 476.705 280.751 482.5 282.5C487.277 283.942 493.5 288 493.5 288L505 296.5L518 306.5L530.5 318.5L544.5 333L553.5 345C553.5 345 558.536 353.338 560.5 359.5L560.514 359.543L560.514 359.543C562.183 364.779 563.188 367.933 563.5 373.5C563.521 373.878 563.543 374.244 563.564 374.598L563.581 374.89L563.605 375.281L563.61 375.372L563.612 375.404L563.613 375.415L563.613 375.42L563.613 375.423V375.423C563.842 379.193 564.001 381.812 563.5 386C563.34 387.335 563.24 388.522 563.145 389.638C562.892 392.627 562.682 395.1 561.5 398.5C559.718 403.624 554.5 410.5 554.5 410.5L548.5 419C548.5 419 558.262 419.353 564.5 419L565 418.972L565.325 418.954C565.632 418.937 565.932 418.92 566.227 418.904C571.879 418.594 575.575 418.391 581.5 417L582 416.883L582.588 416.746C587.779 415.535 591.116 414.756 596 412C601.073 409.137 603.739 406.948 607.5 402.5C608.38 401.459 609.173 400.585 609.913 399.77L609.913 399.77L609.913 399.77L609.913 399.77L609.913 399.769L609.914 399.769C611.79 397.701 613.315 396.021 615 393C617.34 388.806 618.233 385.633 619.5 381C620.638 376.839 621.292 374.308 621.5 370C621.702 365.801 621.317 363.149 620.773 359.405C620.686 358.802 620.594 358.171 620.5 357.5C619.882 353.09 617.5 346.5 617.5 346.5L606 362.5C606 362.5 607.624 371.872 606 377.5C605.417 379.521 604.965 380.631 604 382.5C601.775 386.81 596 392 596 392C596 392 589.513 399.02 584 401C580.828 402.139 575.5 402.5 575.5 402.5C575.5 402.5 579.091 392.617 580 386C580.957 379.036 580.813 374.982 580 368C579.14 360.615 578.167 356.441 575.5 349.5C571.741 339.718 567.201 334.319 561.354 327.366C559.828 325.552 558.213 323.632 556.5 321.5C547.33 310.09 541.73 303.89 530.5 294.5C518.493 284.46 497 272.5 497 272.5L478.5 265ZM467 320L476 334.5C476 334.5 484.28 324.518 490 318.5C495.803 312.394 505.5 303.5 505.5 303.5L492.5 294L467 320ZM547.5 346L556.5 360.5L531 386.5L518 377C518 377 527.697 368.106 533.5 362C539.22 355.982 547.5 346 547.5 346ZM426 267.551C426 267.551 432.427 263.292 437 261.551C440.585 260.187 442.684 259.443 446.5 259.051C449.025 258.792 453 259.051 453 259.051C453 259.051 458.132 254.725 462 252.05C462.268 251.865 462.527 251.685 462.778 251.51L462.784 251.506L462.785 251.505C465.294 249.76 467.062 248.531 470 247.551C473.025 246.543 474.923 246.546 477.87 246.551C478.075 246.551 478.285 246.551 478.5 246.551C481.124 246.551 482.815 246.867 485.111 247.296L485.112 247.296C485.549 247.377 486.008 247.463 486.5 247.551C490.715 248.309 492.73 249.02 496.5 251.051C500.182 253.035 502.471 254.699 505.292 256.749C506.271 257.46 507.313 258.218 508.5 259.051C509.059 259.444 509.588 259.814 510.095 260.169L510.095 260.17L510.095 260.17C513.733 262.717 516.205 264.449 520 267.551C523.64 270.528 525.582 272.322 529 275.551C532.212 278.585 537 283.551 537 283.551L554 281.551C554 281.551 549.419 272.318 545 267.551C541.413 263.682 539.186 261.761 534.5 258.051L522.5 248.551C518.002 244.99 514.401 242.74 509.165 239.467L508.5 239.051C503.9 236.175 501.623 234.836 496.5 233.051C491.649 231.362 488.636 231.08 483.5 231.051C482.662 231.047 481.881 231.035 481.14 231.024C477.17 230.965 474.347 230.923 470 232.051C465.995 233.09 463.809 233.934 460 235.551L459.644 235.702C455.198 237.589 452.54 238.717 448.5 241.551C446.109 243.229 444.645 244.63 442.916 246.285L442.916 246.285L442.916 246.285L442.916 246.285L442.916 246.285L442.915 246.285C442.187 246.983 441.411 247.725 440.5 248.551C440.235 248.792 439.974 249.028 439.718 249.259C436.126 252.511 433.421 254.958 430.5 259.051C428.318 262.109 426 267.551 426 267.551ZM476.5 399.5C473.348 400.541 469 400.5 469 400.5C469 400.5 471.832 406.645 474.5 410C475.919 411.784 477.101 412.86 478.474 414.11C479.096 414.676 479.759 415.279 480.5 416C481.139 416.622 481.718 417.19 482.262 417.724L482.262 417.725C484.332 419.758 485.912 421.31 488.5 423.5C491.69 426.2 497 430 497 430C497 430 491.887 431.793 488.5 432.5C485.797 433.064 484.255 433.305 481.5 433.5C481.039 433.533 480.61 433.567 480.203 433.6C478.207 433.762 476.739 433.881 474.5 433.5C470.971 432.9 469.111 431.815 466.026 430.015L466 430C462.523 427.972 458 423.5 458 423.5C458 423.5 452.807 423.787 449.5 423.5C446.142 423.208 444.248 422.901 441 422C436.281 420.691 429.5 417 429.5 417C429.5 417 434.506 424.146 438.5 428C442.715 432.068 445.55 433.868 450.5 437L450.979 437.303C456.961 441.09 460.585 443.384 467.5 445.5C473.548 447.35 477.178 448.166 483.5 448C489.472 447.843 492.946 447.201 498.5 445C502.891 443.26 509 439 509 439L524 428C524 428 512.453 421.722 505.5 417C504.632 416.41 503.83 415.875 503.072 415.369C499.798 413.184 497.354 411.553 494 408.5C489.395 404.309 483.5 396.5 483.5 396.5C483.5 396.5 479.174 398.617 476.5 399.5ZM527.5 431L515 441.5C515 441.5 521.4 445.619 526 447C530.338 448.303 532.971 448.446 537.5 448.5C538.85 448.516 540.005 448.588 541.092 448.656H541.092C543.322 448.796 545.263 448.917 548 448.5C552.077 447.879 554.643 446.883 558.226 445.493C558.636 445.334 559.059 445.169 559.5 445C563.358 443.516 565.552 441.972 568.528 439.877L568.529 439.876C569.145 439.443 569.795 438.985 570.5 438.5C573.704 436.295 575.61 434.691 578.207 432.505C578.766 432.034 579.357 431.536 580 431C583.188 428.341 584.966 426.833 588 424C591.23 420.985 596 416 596 416C596 416 591.275 419.042 588 420.5C585.348 421.68 583.818 422.304 581 423C578.507 423.615 577.068 423.948 574.5 424C571.546 424.059 567 423 567 423C567 423 562.722 427.08 559.5 429C556.57 430.745 554.793 431.615 551.5 432.5C548.459 433.317 543.5 433.5 543.5 433.5H535.5L527.5 431ZM412.5 355C409.564 351.086 406.5 344 406.5 344C406.5 344 404.752 348.506 404 351.5C403.039 355.33 402.819 357.564 402.5 361.5C402.122 366.171 401.998 368.841 402.5 373.5C403.059 378.68 403.412 381.727 405.5 386.5C407.476 391.015 412.5 397 412.5 397C412.5 397 417.557 403.249 421.5 406.5C424.759 409.187 426.673 410.712 430.5 412.5C433.848 414.064 436.069 414.543 439.421 415.266L440.004 415.392C440.166 415.427 440.332 415.463 440.5 415.5C444.925 416.466 452 417 452 417L442.5 399.5C442.5 399.5 437.379 398.558 434.5 397C432.059 395.679 430.75 394.327 429.1 392.622L429.1 392.622L429.099 392.62L429.098 392.62C428.609 392.114 428.089 391.577 427.5 391C424.535 388.095 423.311 386.736 421.5 383C419.847 379.588 419.148 377.336 418.5 373.5C417.932 370.132 418.192 366.45 418.375 363.862C418.443 362.899 418.5 362.087 418.5 361.5C418.5 361.5 414.574 357.763 412.5 355ZM431 313.5C435.108 310.054 439.5 308 439.5 308C439.5 308 439.281 313.061 439.75 316.25C440.236 319.554 442 324.5 442 324.5C442 324.5 437.62 328.035 433.5 332.5C432.011 334.113 430.983 335.3 429.834 336.627L429.834 336.627L429.833 336.628C429.21 337.347 428.552 338.108 427.765 339C429.028 341.538 429.403 342.157 431 344.5C432.635 346.898 434.002 348.894 436 351C437.651 352.74 437.874 352.912 438.663 353.521C439.054 353.823 439.585 354.233 440.5 354.996C442.539 356.698 444.5 357.5 444.5 357.5V357.974C444.659 357.154 444.833 356.342 445.023 355.544C445.986 351.505 448.5 345.496 448.5 345.496L461.523 361.544C461.523 361.544 459.363 367.916 459.023 372.044C458.56 377.688 458.823 381.011 460.023 386.544C460.736 389.828 461.77 391.908 463.015 394.409L463.015 394.41L463.015 394.41L463.015 394.41C463.489 395.363 463.994 396.378 464.523 397.544C467.627 404.385 473.523 414.544 473.523 414.544C473.523 414.544 470.414 417.168 468.023 418.044C464.173 419.456 457.523 418.044 457.523 418.044C457.523 418.044 453.466 411.1 451.5 407.496C450.909 406.413 450.398 405.496 449.945 404.684C448.1 401.376 447.241 399.835 446.023 396.044C444.864 392.435 444.449 390.312 444.023 386.544C443.568 382.513 443.255 379.101 443.076 376.023L435 370.5C435 370.5 430.389 367.389 427.765 365C425.243 362.704 423.896 361.051 421.96 358.675C421.657 358.303 421.339 357.913 421 357.5C419.587 355.779 417.5 353 417.5 353L409 340C409 340 412.307 335.395 414.5 332.5C414.908 331.961 415.289 331.456 415.652 330.974C417.831 328.087 419.354 326.068 422 323C422.592 322.313 423.134 321.675 423.647 321.071C426.025 318.268 427.779 316.202 431 313.5ZM585.023 371.672C585.023 371.672 589.416 369.618 593.523 366.172C596.744 363.47 598.498 361.404 600.877 358.601C601.39 357.997 601.932 357.358 602.523 356.672C605.169 353.604 606.693 351.584 608.871 348.697C609.043 348.47 609.218 348.237 609.399 347.998C609.6 347.731 609.808 347.456 610.023 347.172C612.216 344.277 615.523 339.672 615.523 339.672L607.023 326.672C607.023 326.672 604.936 323.893 603.523 322.172C603.185 321.759 602.867 321.369 602.564 320.997C600.628 318.621 599.28 316.968 596.759 314.672C594.134 312.283 589.523 309.172 589.523 309.172L581.447 303.649C581.268 300.57 580.956 297.158 580.5 293.127C580.074 289.36 579.66 287.237 578.5 283.627C577.282 279.837 576.423 278.296 574.578 274.987C574.126 274.176 573.614 273.259 573.023 272.176C571.058 268.572 567 261.627 567 261.627C567 261.627 560.35 260.216 556.5 261.627C554.11 262.504 551 265.127 551 265.127C551 265.127 556.896 275.287 560 282.127C560.529 283.293 561.033 284.306 561.507 285.259L561.508 285.262L561.509 285.262C562.753 287.764 563.788 289.843 564.5 293.127C565.701 298.661 565.964 301.984 565.5 307.627C565.161 311.756 563 318.127 563 318.127L576.023 334.176C576.023 334.176 578.537 328.167 579.5 324.127C579.69 323.33 579.864 322.517 580.024 321.698L580.024 322.172C580.024 322.172 581.984 322.974 584.024 324.675C584.937 325.437 585.468 325.847 585.859 326.149L585.861 326.151L585.861 326.151C586.649 326.76 586.873 326.932 588.523 328.672C590.521 330.778 591.889 332.773 593.523 335.172C595.12 337.515 595.495 338.134 596.759 340.672C595.972 341.564 595.313 342.325 594.69 343.044L594.69 343.044C593.54 344.372 592.512 345.559 591.023 347.172C586.903 351.637 582.523 355.172 582.523 355.172C582.523 355.172 584.287 360.118 584.773 363.422C585.243 366.611 585.023 371.672 585.023 371.672ZM515 237.715L530.5 248.715C530.5 248.715 536.552 247.291 540.5 247.215C545.028 247.128 547.644 247.474 552 248.715C555.034 249.58 556.723 250.219 559.5 251.715C562.218 253.18 563.61 254.261 566 256.215C566.283 256.446 566.555 256.668 566.819 256.882C569.345 258.934 571.043 260.313 573 263.215C573.484 263.933 573.959 264.574 574.42 265.196C575.355 266.457 576.231 267.638 577 269.215C577.458 270.154 577.877 270.98 578.272 271.758C579.264 273.713 580.101 275.363 581 277.715C581.751 279.68 582 282.715 582 282.715C582 282.715 587.477 283.912 590.5 285.715C593.704 287.626 595.021 288.998 597.578 291.715C600.336 294.646 601.949 296.752 604 300.215C604.262 300.658 604.511 301.071 604.749 301.465C605.802 303.212 606.641 304.602 607.5 306.715C608.053 308.074 608.187 308.866 608.405 310.155C608.434 310.332 608.466 310.518 608.5 310.715C608.971 313.436 607.5 317.715 607.5 317.715L619 334.215C619 334.215 621.213 329.146 622 325.715C622.834 322.079 622.907 319.945 623 316.215C623.006 315.983 623.012 315.755 623.017 315.531C623.133 311.043 623.206 308.221 622 303.715C620.713 298.906 620.004 296.518 617.5 292.215C615.239 288.33 613.377 286.023 610 282.715C606.513 279.299 603.977 277.047 600 274.215C597.974 272.773 595.525 271.239 593.159 269.833L601 274.215C601 274.215 598.506 267.214 596 263.215C593.278 258.872 591.177 256.785 587.5 253.215C583.874 249.695 581.313 247.914 577.525 245.279C577.039 244.94 576.532 244.587 576 244.215C575.128 243.605 574.333 243.035 573.582 242.498C570.438 240.244 568.068 238.547 564 236.715C558.986 234.458 555.892 233.794 550.5 232.715C550.121 232.639 549.752 232.565 549.39 232.492C543.702 231.348 540.054 230.614 534 231.215C526.196 231.991 515 237.715 515 237.715Z" fill="url(#paint0_linear_128_154)"/>
<path d="M182.12 599V525.464H182.216L221.48 581.144L215.528 579.8L254.696 525.464H254.888V599H240.968V556.856L241.832 564.056L217.928 598.04H217.736L193.16 564.056L195.56 557.432V599H182.12ZM273.151 528.344H321.343V541.784H287.071V556.856H317.407V570.296H287.071V585.56H322.687V599H273.151V528.344ZM400.353 601.88L346.785 553.496L350.913 555.8L351.201 599H337.089V525.56H337.665L390.081 573.752L387.009 572.408L386.721 528.344H400.737V601.88H400.353ZM431.413 572.888C431.413 575.128 432.085 577.272 433.429 579.32C434.773 581.368 436.533 583.032 438.709 584.312C440.949 585.592 443.381 586.232 446.005 586.232C448.885 586.232 451.445 585.592 453.685 584.312C455.925 583.032 457.685 581.368 458.965 579.32C460.309 577.272 460.981 575.128 460.981 572.888V528.344H474.709V573.176C474.709 578.36 473.429 582.968 470.869 587C468.309 590.968 464.853 594.104 460.5 596.408C456.149 598.648 451.317 599.768 446.005 599.768C440.757 599.768 435.957 598.648 431.605 596.408C427.317 594.104 423.893 590.968 421.333 587C418.773 582.968 417.493 578.36 417.493 573.176V528.344H431.413V572.888ZM503.964 599V525.464H504.06L543.324 581.144L537.372 579.8L576.54 525.464H576.732V599H562.812V556.856L563.676 564.056L539.772 598.04H539.58L515.004 564.056L517.404 557.432V599H503.964ZM587.027 599L618.899 525.56H619.667L651.539 599H635.411L615.059 547.352L625.139 540.44L600.755 599H587.027ZM608.819 573.464H630.035L634.931 585.176H604.499L608.819 573.464ZM675.951 553.496L675.567 557.048L677.679 554.36L700.719 528.344H718.767L689.583 560.024L718.863 599H701.199L679.407 568.856L675.951 572.312V599H661.839V528.344H675.951V553.496ZM729.433 528.344H777.625V541.784H743.353V556.856H773.689V570.296H743.353V585.56H778.969V599H729.433V528.344ZM814.778 528.344C820.73 528.344 825.754 529.336 829.85 531.32C833.946 533.24 837.05 535.992 839.162 539.576C841.338 543.096 842.426 547.288 842.426 552.152C842.426 555.032 841.978 557.912 841.082 560.792C840.25 563.672 838.842 566.296 836.858 568.664C834.938 571.032 832.378 572.952 829.178 574.424C825.978 575.832 822.01 576.536 817.274 576.536H807.29V599H793.37V528.344H814.778ZM817.178 563.096C819.994 563.096 822.17 562.52 823.706 561.368C825.306 560.152 826.426 558.744 827.066 557.144C827.706 555.48 828.026 553.976 828.026 552.632C828.026 551.864 827.898 550.904 827.642 549.752C827.45 548.536 827.002 547.32 826.298 546.104C825.594 544.888 824.506 543.864 823.034 543.032C821.626 542.2 819.706 541.784 817.274 541.784H807.29V563.096H817.178ZM830.234 571.736L847.706 599H831.482L813.626 572.12L830.234 571.736Z" fill="url(#paint1_linear_128_154)"/>
<path d="M351.16 717.672H374.968V724.392H366.376V753H359.416V724.392H351.16V717.672ZM381.685 717.672H405.781V724.392H388.645V731.928H403.813V738.648H388.645V746.28H406.453V753H381.685V717.672ZM409.67 753L425.606 716.28H425.99L441.926 753H433.862L423.686 727.176L428.726 723.72L416.534 753H409.67ZM420.566 740.232H431.174L433.622 746.088H418.406L420.566 740.232ZM447.076 753V716.232H447.124L466.756 744.072L463.78 743.4L483.364 716.232H483.46V753H476.5V731.928L476.932 735.528L464.98 752.52H464.884L452.596 735.528L453.796 732.216V753H447.076ZM494.842 753L510.778 716.28H511.162L527.098 753H519.034L508.858 727.176L513.898 723.72L501.706 753H494.842ZM505.738 740.232H516.346L518.794 746.088H503.578L505.738 740.232ZM542.952 717.672C547.336 717.672 550.696 718.76 553.031 720.936C555.368 723.08 556.536 725.96 556.536 729.576C556.536 731.016 556.312 732.472 555.864 733.944C555.448 735.384 554.76 736.696 553.8 737.88C552.872 739.064 551.608 740.024 550.008 740.76C548.44 741.464 546.504 741.816 544.2 741.816H539.208V753H532.248V717.672H542.952ZM544.152 735.048C545.208 735.048 546.088 734.872 546.792 734.52C547.496 734.136 548.04 733.672 548.424 733.128C548.84 732.552 549.128 731.96 549.288 731.352C549.48 730.744 549.576 730.216 549.576 729.768C549.576 729.416 549.512 728.952 549.384 728.376C549.288 727.768 549.064 727.16 548.712 726.552C548.36 725.944 547.816 725.432 547.08 725.016C546.376 724.6 545.416 724.392 544.2 724.392H539.208V735.048H544.152ZM555.17 753L571.106 716.28H571.49L587.426 753H579.362L569.186 727.176L574.226 723.72L562.034 753H555.17ZM566.066 740.232H576.674L579.122 746.088H563.906L566.066 740.232ZM592.576 753V717.672H603.136C606.688 717.672 609.712 718.2 612.208 719.256C614.704 720.312 616.704 721.72 618.208 723.48C619.744 725.24 620.864 727.208 621.568 729.384C622.272 731.56 622.624 733.752 622.624 735.96C622.624 738.584 622.144 740.952 621.184 743.064C620.256 745.144 618.976 746.936 617.344 748.44C615.712 749.912 613.824 751.048 611.68 751.848C609.536 752.616 607.264 753 604.864 753H592.576ZM599.536 746.28H603.664C606.032 746.28 608.096 745.88 609.856 745.08C611.616 744.248 612.976 743.032 613.936 741.432C614.928 739.832 615.424 737.848 615.424 735.48C615.424 733.176 615.04 731.304 614.272 729.864C613.536 728.392 612.608 727.256 611.488 726.456C610.4 725.656 609.28 725.112 608.128 724.824C606.976 724.504 606 724.344 605.2 724.344H599.536V746.28ZM629.607 717.672H636.567V753H629.607V717.672ZM641.701 753L657.637 716.28H658.021L673.957 753H665.893L655.717 727.176L660.757 723.72L648.565 753H641.701ZM652.597 740.232H663.205L665.653 746.088H650.437L652.597 740.232Z" fill="url(#paint2_linear_128_154)"/>
<defs>
<linearGradient id="paint0_linear_128_154" x1="512" y1="193" x2="512" y2="487" gradientUnits="userSpaceOnUse">
<stop stop-color="#5A6D81"/>
<stop offset="1" stop-color="#2E3C47"/>
</linearGradient>
<linearGradient id="paint1_linear_128_154" x1="512" y1="493" x2="512" y2="637" gradientUnits="userSpaceOnUse">
<stop stop-color="#354451"/>
<stop offset="1" stop-color="#242E36"/>
</linearGradient>
<linearGradient id="paint2_linear_128_154" x1="512" y1="700" x2="512" y2="772" gradientUnits="userSpaceOnUse">
<stop stop-color="#354451"/>
<stop offset="1" stop-color="#242E36"/>
</linearGradient>
</defs>
</svg>
